<?xml version="1.0" encoding="UTF-8" standalone="no"?>
<!DOCTYPE svg PUBLIC "-//W3C//DTD SVG 1.1//EN"
 "http://www.w3.org/Graphics/SVG/1.1/DTD/svg11.dtd">
<!-- Generated by graphviz version 7.1.0 (0)
 -->
<!-- Title: IP&#45;1_sample_9_ratio_0.9 Pages: 1 -->
<svg width="1886pt" height="475pt"
 viewBox="0.00 0.00 1886.00 475.00" xmlns="http://www.w3.org/2000/svg" xmlns:xlink="http://www.w3.org/1999/xlink">
<g id="graph0" class="graph" transform="scale(1 1) rotate(0) translate(4 471)">
<title>IP&#45;1_sample_9_ratio_0.9</title>
<polygon fill="white" stroke="none" points="-4,4 -4,-471 1882,-471 1882,4 -4,4"/>
<!-- 140417266065232 -->
<g id="node1" class="node">
<title>140417266065232</title>
<polygon fill="white" stroke="black" points="684,-404 630,-404 630,-368 684,-368 684,-404"/>
<text text-anchor="middle" x="657" y="-382.9" font-family="Times,serif" font-size="12.00">e4</text>
</g>
<!-- 140417266071184 -->
<g id="node42" class="node">
<title>140417266071184</title>
<ellipse fill="white" stroke="black" cx="747" cy="-386" rx="27" ry="27"/>
</g>
<!-- 140417266065232&#45;&gt;140417266071184 -->
<g id="edge29" class="edge">
<title>140417266065232&#45;&gt;140417266071184</title>
<path fill="none" stroke="black" d="M684.4,-386C691.89,-386 700.18,-386 708.2,-386"/>
<polygon fill="black" stroke="black" points="708.1,-389.5 718.1,-386 708.1,-382.5 708.1,-389.5"/>
</g>
<!-- 140417837356560 -->
<g id="node2" class="node">
<title>140417837356560</title>
<polygon fill="white" stroke="black" points="1412,-398 1358,-398 1358,-362 1412,-362 1412,-398"/>
<text text-anchor="middle" x="1385" y="-376.9" font-family="Times,serif" font-size="12.00">e8</text>
</g>
<!-- 140417261758736 -->
<g id="node50" class="node">
<title>140417261758736</title>
<ellipse fill="white" stroke="black" cx="1475" cy="-368" rx="27" ry="27"/>
</g>
<!-- 140417837356560&#45;&gt;140417261758736 -->
<g id="edge32" class="edge">
<title>140417837356560&#45;&gt;140417261758736</title>
<path fill="none" stroke="black" d="M1412.4,-376.4C1420.04,-375.36 1428.53,-374.2 1436.7,-373.09"/>
<polygon fill="black" stroke="black" points="1436.98,-376.58 1446.42,-371.76 1436.04,-369.64 1436.98,-376.58"/>
</g>
<!-- 140417261758032 -->
<g id="node54" class="node">
<title>140417261758032</title>
<ellipse fill="white" stroke="black" cx="1475" cy="-440" rx="27" ry="27"/>
</g>
<!-- 140417837356560&#45;&gt;140417261758032 -->
<g id="edge33" class="edge">
<title>140417837356560&#45;&gt;140417261758032</title>
<path fill="none" stroke="black" d="M1412.4,-398C1421.9,-404.47 1432.7,-411.84 1442.57,-418.57"/>
<polygon fill="black" stroke="black" points="1440.58,-421.45 1450.81,-424.19 1444.52,-415.66 1440.58,-421.45"/>
</g>
<!-- 140417261757456 -->
<g id="node3" class="node">
<title>140417261757456</title>
<polygon fill="white" stroke="black" points="1044,-337 990,-337 990,-301 1044,-301 1044,-337"/>
<text text-anchor="middle" x="1017" y="-315.9" font-family="Times,serif" font-size="12.00">e7</text>
</g>
<!-- 140417266073552 -->
<g id="node56" class="node">
<title>140417266073552</title>
<ellipse fill="white" stroke="black" cx="1107" cy="-315" rx="27" ry="27"/>
</g>
<!-- 140417261757456&#45;&gt;140417266073552 -->
<g id="edge22" class="edge">
<title>140417261757456&#45;&gt;140417266073552</title>
<path fill="none" stroke="black" d="M1044.4,-317.8C1051.89,-317.46 1060.18,-317.08 1068.2,-316.72"/>
<polygon fill="black" stroke="black" points="1068.27,-320.22 1078.1,-316.27 1067.96,-313.23 1068.27,-320.22"/>
</g>
<!-- 140417261762320 -->
<g id="node4" class="node">
<title>140417261762320</title>
<polygon fill="white" stroke="black" points="1592,-307 1538,-307 1538,-271 1592,-271 1592,-307"/>
<text text-anchor="middle" x="1565" y="-285.9" font-family="Times,serif" font-size="12.00">e10</text>
</g>
<!-- 140417261764240 -->
<g id="node58" class="node">
<title>140417261764240</title>
<ellipse fill="white" stroke="black" cx="1659" cy="-296" rx="27" ry="27"/>
</g>
<!-- 140417261762320&#45;&gt;140417261764240 -->
<g id="edge23" class="edge">
<title>140417261762320&#45;&gt;140417261764240</title>
<path fill="none" stroke="black" d="M1592.12,-290.99C1600.96,-291.66 1611.01,-292.42 1620.55,-293.15"/>
<polygon fill="black" stroke="black" points="1620.07,-296.62 1630.31,-293.89 1620.6,-289.64 1620.07,-296.62"/>
</g>
<!-- 140417793025552 -->
<g id="node5" class="node">
<title>140417793025552</title>
<polygon fill="white" stroke="black" points="864,-200 810,-200 810,-164 864,-164 864,-200"/>
<text text-anchor="middle" x="837" y="-178.9" font-family="Times,serif" font-size="12.00">t6</text>
</g>
<!-- 140417793023184 -->
<g id="node43" class="node">
<title>140417793023184</title>
<ellipse fill="white" stroke="black" cx="927" cy="-120" rx="27" ry="27"/>
</g>
<!-- 140417793025552&#45;&gt;140417793023184 -->
<g id="edge3" class="edge">
<title>140417793025552&#45;&gt;140417793023184</title>
<path fill="none" stroke="black" d="M863.93,-163.73C873.69,-156.86 884.88,-148.97 895.05,-141.8"/>
<polygon fill="black" stroke="black" points="897.01,-144.7 903.17,-136.08 892.98,-138.98 897.01,-144.7"/>
</g>
<!-- 140417793024528 -->
<g id="node6" class="node">
<title>140417793024528</title>
<polygon fill="white" stroke="black" points="1044,-156 990,-156 990,-120 1044,-120 1044,-156"/>
<text text-anchor="middle" x="1017" y="-134.9" font-family="Times,serif" font-size="12.00">a!_2</text>
</g>
<!-- 140417793024848 -->
<g id="node45" class="node">
<title>140417793024848</title>
<ellipse fill="white" stroke="black" cx="1107" cy="-99" rx="27" ry="27"/>
</g>
<!-- 140417793024528&#45;&gt;140417793024848 -->
<g id="edge12" class="edge">
<title>140417793024528&#45;&gt;140417793024848</title>
<path fill="none" stroke="black" d="M1044.4,-126.3C1052.83,-122.57 1062.28,-118.38 1071.2,-114.42"/>
<polygon fill="black" stroke="black" points="1072.61,-117.63 1080.34,-110.37 1069.77,-111.23 1072.61,-117.63"/>
</g>
<!-- 140417837556752 -->
<g id="node60" class="node">
<title>140417837556752</title>
<ellipse fill="white" stroke="black" cx="1107" cy="-243" rx="27" ry="27"/>
</g>
<!-- 140417793024528&#45;&gt;140417837556752 -->
<g id="edge13" class="edge">
<title>140417793024528&#45;&gt;140417837556752</title>
<path fill="none" stroke="black" d="M1033.33,-156.29C1046.7,-172.25 1066.33,-195.67 1081.82,-214.15"/>
<polygon fill="black" stroke="black" points="1078.97,-216.19 1088.07,-221.61 1084.33,-211.7 1078.97,-216.19"/>
</g>
<!-- 140417841388176 -->
<g id="node7" class="node">
<title>140417841388176</title>
<polygon fill="white" stroke="black" points="504,-188 450,-188 450,-152 504,-152 504,-188"/>
<text text-anchor="middle" x="477" y="-166.9" font-family="Times,serif" font-size="12.00">t3</text>
</g>
<!-- 140417841394512 -->
<g id="node68" class="node">
<title>140417841394512</title>
<ellipse fill="white" stroke="black" cx="567" cy="-170" rx="27" ry="27"/>
</g>
<!-- 140417841388176&#45;&gt;140417841394512 -->
<g id="edge28" class="edge">
<title>140417841388176&#45;&gt;140417841394512</title>
<path fill="none" stroke="black" d="M504.4,-170C511.89,-170 520.18,-170 528.2,-170"/>
<polygon fill="black" stroke="black" points="528.1,-173.5 538.1,-170 528.1,-166.5 528.1,-173.5"/>
</g>
<!-- 140417793026320 -->
<g id="node8" class="node">
<title>140417793026320</title>
<polygon fill="white" stroke="black" points="1224,-189 1170,-189 1170,-153 1224,-153 1224,-189"/>
<text text-anchor="middle" x="1197" y="-167.9" font-family="Times,serif" font-size="12.00">t9</text>
</g>
<!-- 140417793016848 -->
<g id="node41" class="node">
<title>140417793016848</title>
<ellipse fill="white" stroke="black" cx="1291" cy="-171" rx="27" ry="27"/>
</g>
<!-- 140417793026320&#45;&gt;140417793016848 -->
<g id="edge14" class="edge">
<title>140417793026320&#45;&gt;140417793016848</title>
<path fill="none" stroke="black" d="M1224.12,-171C1232.96,-171 1243.01,-171 1252.55,-171"/>
<polygon fill="black" stroke="black" points="1252.3,-174.5 1262.3,-171 1252.3,-167.5 1252.3,-174.5"/>
</g>
<!-- 140417267429648 -->
<g id="node9" class="node">
<title>140417267429648</title>
<polygon fill="white" stroke="black" points="1592,-117 1538,-117 1538,-81 1592,-81 1592,-117"/>
<text text-anchor="middle" x="1565" y="-95.9" font-family="Times,serif" font-size="12.00">t14</text>
</g>
<!-- 140417168468432 -->
<g id="node71" class="node">
<title>140417168468432</title>
<ellipse fill="white" stroke="black" cx="1659" cy="-121" rx="27" ry="27"/>
<ellipse fill="none" stroke="black" cx="1659" cy="-121" rx="31" ry="31"/>
<text text-anchor="start" x="1643.5" y="-112.9" font-family="Times,serif" font-size="32.00">■</text>
</g>
<!-- 140417267429648&#45;&gt;140417168468432 -->
<g id="edge16" class="edge">
<title>140417267429648&#45;&gt;140417168468432</title>
<path fill="none" stroke="black" d="M1592.12,-105.25C1600.02,-107.14 1608.9,-109.26 1617.51,-111.32"/>
<polygon fill="black" stroke="black" points="1616.57,-114.69 1627.11,-113.61 1618.19,-107.88 1616.57,-114.69"/>
</g>
<!-- 140417790347408 -->
<g id="node10" class="node">
<title>140417790347408</title>
<polygon fill="white" stroke="black" points="1224,-341 1170,-341 1170,-305 1224,-305 1224,-341"/>
<text text-anchor="middle" x="1197" y="-319.9" font-family="Times,serif" font-size="12.00">a?_1</text>
</g>
<!-- 140417266068496 -->
<g id="node47" class="node">
<title>140417266068496</title>
<ellipse fill="white" stroke="black" cx="1291" cy="-380" rx="27" ry="27"/>
</g>
<!-- 140417790347408&#45;&gt;140417266068496 -->
<g id="edge30" class="edge">
<title>140417790347408&#45;&gt;140417266068496</title>
<path fill="none" stroke="black" d="M1224.12,-339.18C1234.61,-345.68 1246.81,-353.24 1257.85,-360.08"/>
<polygon fill="black" stroke="black" points="1255.93,-363.01 1266.28,-365.3 1259.62,-357.06 1255.93,-363.01"/>
</g>
<!-- 140417168508880 -->
<g id="node73" class="node">
<title>140417168508880</title>
<ellipse fill="white" stroke="black" cx="1291" cy="-304" rx="27" ry="27"/>
<ellipse fill="none" stroke="black" cx="1291" cy="-304" rx="31" ry="31"/>
<text text-anchor="start" x="1275.5" y="-295.9" font-family="Times,serif" font-size="32.00">■</text>
</g>
<!-- 140417790347408&#45;&gt;140417168508880 -->
<g id="edge31" class="edge">
<title>140417790347408&#45;&gt;140417168508880</title>
<path fill="none" stroke="black" d="M1224.12,-317.61C1231.86,-316.01 1240.53,-314.22 1248.98,-312.47"/>
<polygon fill="black" stroke="black" points="1249.68,-315.9 1258.77,-310.45 1248.27,-309.05 1249.68,-315.9"/>
</g>
<!-- 140417266067344 -->
<g id="node11" class="node">
<title>140417266067344</title>
<polygon fill="white" stroke="black" points="144,-368 90,-368 90,-332 144,-332 144,-368"/>
</g>
<!-- 140417266058064 -->
<g id="node61" class="node">
<title>140417266058064</title>
<ellipse fill="white" stroke="black" cx="207" cy="-314" rx="27" ry="27"/>
</g>
<!-- 140417266067344&#45;&gt;140417266058064 -->
<g id="edge83" class="edge">
<title>140417266067344&#45;&gt;140417266058064</title>
<path fill="none" stroke="black" d="M144.4,-339.2C152.75,-335.78 162.12,-331.95 170.97,-328.33"/>
<polygon fill="black" stroke="black" points="172.09,-331.65 180.02,-324.63 169.44,-325.17 172.09,-331.65"/>
</g>
<!-- 140417266062992 -->
<g id="node65" class="node">
<title>140417266062992</title>
<ellipse fill="white" stroke="black" cx="207" cy="-386" rx="27" ry="27"/>
</g>
<!-- 140417266067344&#45;&gt;140417266062992 -->
<g id="edge84" class="edge">
<title>140417266067344&#45;&gt;140417266062992</title>
<path fill="none" stroke="black" d="M144.4,-360.8C152.75,-364.22 162.12,-368.05 170.97,-371.67"/>
<polygon fill="black" stroke="black" points="169.44,-374.83 180.02,-375.37 172.09,-368.35 169.44,-374.83"/>
</g>
<!-- 140417261759632 -->
<g id="node12" class="node">
<title>140417261759632</title>
<polygon fill="white" stroke="black" points="1780,-386 1726,-386 1726,-350 1780,-350 1780,-386"/>
<text text-anchor="middle" x="1753" y="-364.9" font-family="Times,serif" font-size="12.00">e15</text>
</g>
<!-- 140417266067088 -->
<g id="node72" class="node">
<title>140417266067088</title>
<ellipse fill="white" stroke="black" cx="1847" cy="-296" rx="27" ry="27"/>
<ellipse fill="none" stroke="black" cx="1847" cy="-296" rx="31" ry="31"/>
<text text-anchor="start" x="1831.5" y="-287.9" font-family="Times,serif" font-size="32.00">■</text>
</g>
<!-- 140417261759632&#45;&gt;140417266067088 -->
<g id="edge11" class="edge">
<title>140417261759632&#45;&gt;140417266067088</title>
<path fill="none" stroke="black" d="M1777.22,-349.83C1788.07,-341.33 1801.2,-331.06 1813.06,-321.78"/>
<polygon fill="black" stroke="black" points="1814.92,-324.77 1820.64,-315.85 1810.6,-319.26 1814.92,-324.77"/>
</g>
<!-- 140417266058704 -->
<g id="node13" class="node">
<title>140417266058704</title>
<polygon fill="white" stroke="black" points="864,-365 810,-365 810,-329 864,-329 864,-365"/>
<text text-anchor="middle" x="837" y="-343.9" font-family="Times,serif" font-size="12.00">e5</text>
</g>
<!-- 140417266069328 -->
<g id="node44" class="node">
<title>140417266069328</title>
<ellipse fill="white" stroke="black" cx="927" cy="-347" rx="27" ry="27"/>
</g>
<!-- 140417266058704&#45;&gt;140417266069328 -->
<g id="edge4" class="edge">
<title>140417266058704&#45;&gt;140417266069328</title>
<path fill="none" stroke="black" d="M864.4,-347C871.89,-347 880.18,-347 888.2,-347"/>
<polygon fill="black" stroke="black" points="888.1,-350.5 898.1,-347 888.1,-343.5 888.1,-350.5"/>
</g>
<!-- 140417261749840 -->
<g id="node14" class="node">
<title>140417261749840</title>
<polygon fill="white" stroke="black" points="1592,-458 1538,-458 1538,-422 1592,-422 1592,-458"/>
<text text-anchor="middle" x="1565" y="-436.9" font-family="Times,serif" font-size="12.00">e11</text>
</g>
<!-- 140417261757776 -->
<g id="node55" class="node">
<title>140417261757776</title>
<ellipse fill="white" stroke="black" cx="1659" cy="-440" rx="27" ry="27"/>
</g>
<!-- 140417261749840&#45;&gt;140417261757776 -->
<g id="edge9" class="edge">
<title>140417261749840&#45;&gt;140417261757776</title>
<path fill="none" stroke="black" d="M1592.12,-440C1600.96,-440 1611.01,-440 1620.55,-440"/>
<polygon fill="black" stroke="black" points="1620.3,-443.5 1630.3,-440 1620.3,-436.5 1620.3,-443.5"/>
</g>
<!-- 140417266073232 -->
<g id="node15" class="node">
<title>140417266073232</title>
<polygon fill="white" stroke="black" points="324,-332 270,-332 270,-296 324,-296 324,-332"/>
<text text-anchor="middle" x="297" y="-310.9" font-family="Times,serif" font-size="12.00">e1</text>
</g>
<!-- 140417266072976 -->
<g id="node63" class="node">
<title>140417266072976</title>
<ellipse fill="white" stroke="black" cx="387" cy="-314" rx="27" ry="27"/>
</g>
<!-- 140417266073232&#45;&gt;140417266072976 -->
<g id="edge34" class="edge">
<title>140417266073232&#45;&gt;140417266072976</title>
<path fill="none" stroke="black" d="M324.4,-314C331.89,-314 340.18,-314 348.2,-314"/>
<polygon fill="black" stroke="black" points="348.1,-317.5 358.1,-314 348.1,-310.5 348.1,-317.5"/>
</g>
<!-- 140417266065040 -->
<g id="node16" class="node">
<title>140417266065040</title>
<polygon fill="white" stroke="black" points="1044,-393 990,-393 990,-357 1044,-357 1044,-393"/>
<text text-anchor="middle" x="1017" y="-371.9" font-family="Times,serif" font-size="12.00">e6</text>
</g>
<!-- 140417266060816 -->
<g id="node46" class="node">
<title>140417266060816</title>
<ellipse fill="white" stroke="black" cx="1107" cy="-387" rx="27" ry="27"/>
</g>
<!-- 140417266065040&#45;&gt;140417266060816 -->
<g id="edge35" class="edge">
<title>140417266065040&#45;&gt;140417266060816</title>
<path fill="none" stroke="black" d="M1044.4,-378.6C1052.04,-379.64 1060.53,-380.8 1068.7,-381.91"/>
<polygon fill="black" stroke="black" points="1068.04,-385.36 1078.42,-383.24 1068.98,-378.42 1068.04,-385.36"/>
</g>
<!-- 140417261758160 -->
<g id="node17" class="node">
<title>140417261758160</title>
<polygon fill="white" stroke="black" points="1592,-386 1538,-386 1538,-350 1592,-350 1592,-386"/>
<text text-anchor="middle" x="1565" y="-364.9" font-family="Times,serif" font-size="12.00">e12</text>
</g>
<!-- 140417261749648 -->
<g id="node52" class="node">
<title>140417261749648</title>
<ellipse fill="white" stroke="black" cx="1659" cy="-368" rx="27" ry="27"/>
</g>
<!-- 140417261758160&#45;&gt;140417261749648 -->
<g id="edge1" class="edge">
<title>140417261758160&#45;&gt;140417261749648</title>
<path fill="none" stroke="black" d="M1592.12,-368C1600.96,-368 1611.01,-368 1620.55,-368"/>
<polygon fill="black" stroke="black" points="1620.3,-371.5 1630.3,-368 1620.3,-364.5 1620.3,-371.5"/>
</g>
<!-- 140417261756176 -->
<g id="node18" class="node">
<title>140417261756176</title>
<polygon fill="white" stroke="black" points="1592,-246 1538,-246 1538,-210 1592,-210 1592,-246"/>
<text text-anchor="middle" x="1565" y="-224.9" font-family="Times,serif" font-size="12.00">e9</text>
</g>
<!-- 140417261757008 -->
<g id="node59" class="node">
<title>140417261757008</title>
<ellipse fill="white" stroke="black" cx="1659" cy="-224" rx="27" ry="27"/>
</g>
<!-- 140417261756176&#45;&gt;140417261757008 -->
<g id="edge19" class="edge">
<title>140417261756176&#45;&gt;140417261757008</title>
<path fill="none" stroke="black" d="M1592.12,-226.86C1600.96,-226.48 1611.01,-226.04 1620.55,-225.63"/>
<polygon fill="black" stroke="black" points="1620.47,-229.14 1630.31,-225.2 1620.16,-222.14 1620.47,-229.14"/>
</g>
<!-- 140417167939024 -->
<g id="node19" class="node">
<title>140417167939024</title>
<polygon fill="white" stroke="black" points="1224,-285 1170,-285 1170,-249 1224,-249 1224,-285"/>
<text text-anchor="middle" x="1197" y="-263.9" font-family="Times,serif" font-size="12.00">a?_2</text>
</g>
<!-- 140417261748816 -->
<g id="node57" class="node">
<title>140417261748816</title>
<ellipse fill="white" stroke="black" cx="1475" cy="-245" rx="27" ry="27"/>
</g>
<!-- 140417167939024&#45;&gt;140417261748816 -->
<g id="edge20" class="edge">
<title>140417167939024&#45;&gt;140417261748816</title>
<path fill="none" stroke="black" d="M1224.46,-264.89C1273.72,-260.96 1379.58,-252.53 1436.3,-248.01"/>
<polygon fill="black" stroke="black" points="1436.42,-251.51 1446.11,-247.22 1435.86,-244.53 1436.42,-251.51"/>
</g>
<!-- 140417167939024&#45;&gt;140417168508880 -->
<g id="edge21" class="edge">
<title>140417167939024&#45;&gt;140417168508880</title>
<path fill="none" stroke="black" d="M1224.12,-277.5C1232.59,-280.91 1242.19,-284.77 1251.37,-288.47"/>
<polygon fill="black" stroke="black" points="1249.9,-291.64 1260.48,-292.13 1252.51,-285.15 1249.9,-291.64"/>
</g>
<!-- 140417793022928 -->
<g id="node20" class="node">
<title>140417793022928</title>
<polygon fill="white" stroke="black" points="1412,-185 1358,-185 1358,-149 1412,-149 1412,-185"/>
<text text-anchor="middle" x="1385" y="-163.9" font-family="Times,serif" font-size="12.00">t10</text>
</g>
<!-- 140417793022928&#45;&gt;140417168468432 -->
<g id="edge2" class="edge">
<title>140417793022928&#45;&gt;140417168468432</title>
<path fill="none" stroke="black" d="M1412.08,-162.59C1459.6,-154.55 1560.6,-137.47 1617.26,-127.89"/>
<polygon fill="black" stroke="black" points="1617.54,-131.39 1626.82,-126.27 1616.38,-124.49 1617.54,-131.39"/>
</g>
<!-- 140417267432016 -->
<g id="node21" class="node">
<title>140417267432016</title>
<polygon fill="white" stroke="black" points="1412,-117 1358,-117 1358,-81 1412,-81 1412,-117"/>
<text text-anchor="middle" x="1385" y="-95.9" font-family="Times,serif" font-size="12.00">t13</text>
</g>
<!-- 140417267425616 -->
<g id="node49" class="node">
<title>140417267425616</title>
<ellipse fill="white" stroke="black" cx="1475" cy="-99" rx="27" ry="27"/>
</g>
<!-- 140417267432016&#45;&gt;140417267425616 -->
<g id="edge36" class="edge">
<title>140417267432016&#45;&gt;140417267425616</title>
<path fill="none" stroke="black" d="M1412.4,-99C1419.89,-99 1428.18,-99 1436.2,-99"/>
<polygon fill="black" stroke="black" points="1436.1,-102.5 1446.1,-99 1436.1,-95.5 1436.1,-102.5"/>
</g>
<!-- 140417171045200 -->
<g id="node22" class="node">
<title>140417171045200</title>
<polygon fill="white" stroke="black" points="324,-224 270,-224 270,-188 324,-188 324,-224"/>
<text text-anchor="middle" x="297" y="-202.9" font-family="Times,serif" font-size="12.00">t1</text>
</g>
<!-- 140417170192144 -->
<g id="node62" class="node">
<title>140417170192144</title>
<ellipse fill="white" stroke="black" cx="387" cy="-242" rx="27" ry="27"/>
</g>
<!-- 140417171045200&#45;&gt;140417170192144 -->
<g id="edge5" class="edge">
<title>140417171045200&#45;&gt;140417170192144</title>
<path fill="none" stroke="black" d="M324.4,-216.8C332.75,-220.22 342.12,-224.05 350.97,-227.67"/>
<polygon fill="black" stroke="black" points="349.44,-230.83 360.02,-231.37 352.09,-224.35 349.44,-230.83"/>
</g>
<!-- 140417170023632 -->
<g id="node66" class="node">
<title>140417170023632</title>
<ellipse fill="white" stroke="black" cx="387" cy="-170" rx="27" ry="27"/>
</g>
<!-- 140417171045200&#45;&gt;140417170023632 -->
<g id="edge6" class="edge">
<title>140417171045200&#45;&gt;140417170023632</title>
<path fill="none" stroke="black" d="M324.4,-195.2C332.75,-191.78 342.12,-187.95 350.97,-184.33"/>
<polygon fill="black" stroke="black" points="352.09,-187.65 360.02,-180.63 349.44,-181.17 352.09,-187.65"/>
</g>
<!-- 140417267431376 -->
<g id="node23" class="node">
<title>140417267431376</title>
<polygon fill="white" stroke="black" points="1412,-45 1358,-45 1358,-9 1412,-9 1412,-45"/>
<text text-anchor="middle" x="1385" y="-23.9" font-family="Times,serif" font-size="12.00">t12</text>
</g>
<!-- 140417267429456 -->
<g id="node53" class="node">
<title>140417267429456</title>
<ellipse fill="white" stroke="black" cx="1475" cy="-27" rx="27" ry="27"/>
</g>
<!-- 140417267431376&#45;&gt;140417267429456 -->
<g id="edge10" class="edge">
<title>140417267431376&#45;&gt;140417267429456</title>
<path fill="none" stroke="black" d="M1412.4,-27C1419.89,-27 1428.18,-27 1436.2,-27"/>
<polygon fill="black" stroke="black" points="1436.1,-30.5 1446.1,-27 1436.1,-23.5 1436.1,-30.5"/>
</g>
<!-- 140417170017360 -->
<g id="node24" class="node">
<title>140417170017360</title>
<polygon fill="white" stroke="black" points="504,-260 450,-260 450,-224 504,-224 504,-260"/>
<text text-anchor="middle" x="477" y="-238.9" font-family="Times,serif" font-size="12.00">t2</text>
</g>
<!-- 140417790360080 -->
<g id="node64" class="node">
<title>140417790360080</title>
<ellipse fill="white" stroke="black" cx="567" cy="-242" rx="27" ry="27"/>
</g>
<!-- 140417170017360&#45;&gt;140417790360080 -->
<g id="edge38" class="edge">
<title>140417170017360&#45;&gt;140417790360080</title>
<path fill="none" stroke="black" d="M504.4,-242C511.89,-242 520.18,-242 528.2,-242"/>
<polygon fill="black" stroke="black" points="528.1,-245.5 538.1,-242 528.1,-238.5 528.1,-245.5"/>
</g>
<!-- 140417839808336 -->
<g id="node25" class="node">
<title>140417839808336</title>
<polygon fill="white" stroke="black" points="684,-227 630,-227 630,-191 684,-191 684,-227"/>
<text text-anchor="middle" x="657" y="-205.9" font-family="Times,serif" font-size="12.00">t4</text>
</g>
<!-- 140417841389392 -->
<g id="node69" class="node">
<title>140417841389392</title>
<ellipse fill="white" stroke="black" cx="747" cy="-209" rx="27" ry="27"/>
</g>
<!-- 140417839808336&#45;&gt;140417841389392 -->
<g id="edge24" class="edge">
<title>140417839808336&#45;&gt;140417841389392</title>
<path fill="none" stroke="black" d="M684.4,-209C691.89,-209 700.18,-209 708.2,-209"/>
<polygon fill="black" stroke="black" points="708.1,-212.5 718.1,-209 708.1,-205.5 708.1,-212.5"/>
</g>
<!-- 140417839803600 -->
<g id="node26" class="node">
<title>140417839803600</title>
<polygon fill="white" stroke="black" points="864,-260 810,-260 810,-224 864,-224 864,-260"/>
<text text-anchor="middle" x="837" y="-238.9" font-family="Times,serif" font-size="12.00">t5</text>
</g>
<!-- 140417839796752 -->
<g id="node37" class="node">
<title>140417839796752</title>
<ellipse fill="white" stroke="black" cx="927" cy="-264" rx="27" ry="27"/>
</g>
<!-- 140417839803600&#45;&gt;140417839796752 -->
<g id="edge8" class="edge">
<title>140417839803600&#45;&gt;140417839796752</title>
<path fill="none" stroke="black" d="M864.4,-248.6C872.27,-250.57 881.03,-252.76 889.43,-254.86"/>
<polygon fill="black" stroke="black" points="888.5,-258.23 899.05,-257.26 890.2,-251.44 888.5,-258.23"/>
</g>
<!-- 140417839808464 -->
<g id="node27" class="node">
<title>140417839808464</title>
<polygon fill="white" stroke="black" points="1044,-252 990,-252 990,-216 1044,-216 1044,-252"/>
<text text-anchor="middle" x="1017" y="-230.9" font-family="Times,serif" font-size="12.00">a!_1</text>
</g>
<!-- 140417839798224 -->
<g id="node39" class="node">
<title>140417839798224</title>
<ellipse fill="white" stroke="black" cx="1107" cy="-171" rx="27" ry="27"/>
</g>
<!-- 140417839808464&#45;&gt;140417839798224 -->
<g id="edge25" class="edge">
<title>140417839808464&#45;&gt;140417839798224</title>
<path fill="none" stroke="black" d="M1043.45,-215.78C1053.4,-208.66 1064.9,-200.42 1075.3,-192.98"/>
<polygon fill="black" stroke="black" points="1077.15,-195.96 1083.24,-187.29 1073.07,-190.27 1077.15,-195.96"/>
</g>
<!-- 140417839808464&#45;&gt;140417837556752 -->
<g id="edge26" class="edge">
<title>140417839808464&#45;&gt;140417837556752</title>
<path fill="none" stroke="black" d="M1044.4,-236.7C1052.04,-237.48 1060.53,-238.35 1068.7,-239.19"/>
<polygon fill="black" stroke="black" points="1068.11,-242.64 1078.41,-240.18 1068.82,-235.68 1068.11,-242.64"/>
</g>
<!-- 140417267132880 -->
<g id="node28" class="node">
<title>140417267132880</title>
<polygon fill="white" stroke="black" points="1224,-117 1170,-117 1170,-81 1224,-81 1224,-117"/>
<text text-anchor="middle" x="1197" y="-95.9" font-family="Times,serif" font-size="12.00">t11</text>
</g>
<!-- 140417267425296 -->
<g id="node48" class="node">
<title>140417267425296</title>
<ellipse fill="white" stroke="black" cx="1291" cy="-99" rx="27" ry="27"/>
</g>
<!-- 140417267132880&#45;&gt;140417267425296 -->
<g id="edge17" class="edge">
<title>140417267132880&#45;&gt;140417267425296</title>
<path fill="none" stroke="black" d="M1224.12,-99C1232.96,-99 1243.01,-99 1252.55,-99"/>
<polygon fill="black" stroke="black" points="1252.3,-102.5 1262.3,-99 1252.3,-95.5 1252.3,-102.5"/>
</g>
<!-- 140417267430480 -->
<g id="node51" class="node">
<title>140417267430480</title>
<ellipse fill="white" stroke="black" cx="1291" cy="-27" rx="27" ry="27"/>
</g>
<!-- 140417267132880&#45;&gt;140417267430480 -->
<g id="edge18" class="edge">
<title>140417267132880&#45;&gt;140417267430480</title>
<path fill="none" stroke="black" d="M1221.22,-80.83C1233.04,-71.58 1247.55,-60.22 1260.19,-50.33"/>
<polygon fill="black" stroke="black" points="1262.08,-53.29 1267.8,-44.37 1257.77,-47.78 1262.08,-53.29"/>
</g>
<!-- 140417266061456 -->
<g id="node29" class="node">
<title>140417266061456</title>
<polygon fill="white" stroke="black" points="684,-332 630,-332 630,-296 684,-296 684,-332"/>
<text text-anchor="middle" x="657" y="-310.9" font-family="Times,serif" font-size="12.00">e3</text>
</g>
<!-- 140417266072144 -->
<g id="node38" class="node">
<title>140417266072144</title>
<ellipse fill="white" stroke="black" cx="747" cy="-314" rx="27" ry="27"/>
</g>
<!-- 140417266061456&#45;&gt;140417266072144 -->
<g id="edge27" class="edge">
<title>140417266061456&#45;&gt;140417266072144</title>
<path fill="none" stroke="black" d="M684.4,-314C691.89,-314 700.18,-314 708.2,-314"/>
<polygon fill="black" stroke="black" points="708.1,-317.5 718.1,-314 708.1,-310.5 708.1,-317.5"/>
</g>
<!-- 140417261761424 -->
<g id="node30" class="node">
<title>140417261761424</title>
<polygon fill="white" stroke="black" points="1780,-314 1726,-314 1726,-278 1780,-278 1780,-314"/>
<text text-anchor="middle" x="1753" y="-292.9" font-family="Times,serif" font-size="12.00">e14</text>
</g>
<!-- 140417261761424&#45;&gt;140417266067088 -->
<g id="edge37" class="edge">
<title>140417261761424&#45;&gt;140417266067088</title>
<path fill="none" stroke="black" d="M1780.12,-296C1787.63,-296 1796.01,-296 1804.22,-296"/>
<polygon fill="black" stroke="black" points="1804.08,-299.5 1814.08,-296 1804.08,-292.5 1804.08,-299.5"/>
</g>
<!-- 140417261759440 -->
<g id="node31" class="node">
<title>140417261759440</title>
<polygon fill="white" stroke="black" points="1780,-251 1726,-251 1726,-215 1780,-215 1780,-251"/>
<text text-anchor="middle" x="1753" y="-229.9" font-family="Times,serif" font-size="12.00">e13</text>
</g>
<!-- 140417261759440&#45;&gt;140417266067088 -->
<g id="edge15" class="edge">
<title>140417261759440&#45;&gt;140417266067088</title>
<path fill="none" stroke="black" d="M1780.12,-250.88C1789.88,-257.57 1801.12,-265.27 1811.52,-272.39"/>
<polygon fill="black" stroke="black" points="1809.29,-275.11 1819.52,-277.87 1813.25,-269.33 1809.29,-275.11"/>
</g>
<!-- 140417266062736 -->
<g id="node32" class="node">
<title>140417266062736</title>
<polygon fill="white" stroke="black" points="504,-332 450,-332 450,-296 504,-296 504,-332"/>
</g>
<!-- 140417266063440 -->
<g id="node40" class="node">
<title>140417266063440</title>
<ellipse fill="white" stroke="black" cx="567" cy="-386" rx="27" ry="27"/>
</g>
<!-- 140417266062736&#45;&gt;140417266063440 -->
<g id="edge81" class="edge">
<title>140417266062736&#45;&gt;140417266063440</title>
<path fill="none" stroke="black" d="M500.21,-332.17C511.32,-341.26 524.92,-352.39 536.87,-362.16"/>
<polygon fill="black" stroke="black" points="534.48,-364.74 544.44,-368.36 538.92,-359.32 534.48,-364.74"/>
</g>
<!-- 140417266064976 -->
<g id="node70" class="node">
<title>140417266064976</title>
<ellipse fill="white" stroke="black" cx="567" cy="-314" rx="27" ry="27"/>
</g>
<!-- 140417266062736&#45;&gt;140417266064976 -->
<g id="edge82" class="edge">
<title>140417266062736&#45;&gt;140417266064976</title>
<path fill="none" stroke="black" d="M504.4,-314C511.89,-314 520.18,-314 528.2,-314"/>
<polygon fill="black" stroke="black" points="528.1,-317.5 538.1,-314 528.1,-310.5 528.1,-317.5"/>
</g>
<!-- 140417266073040 -->
<g id="node33" class="node">
<title>140417266073040</title>
<polygon fill="white" stroke="black" points="324,-404 270,-404 270,-368 324,-368 324,-404"/>
<text text-anchor="middle" x="297" y="-382.9" font-family="Times,serif" font-size="12.00">e2</text>
</g>
<!-- 140417266059408 -->
<g id="node67" class="node">
<title>140417266059408</title>
<ellipse fill="white" stroke="black" cx="387" cy="-386" rx="27" ry="27"/>
</g>
<!-- 140417266073040&#45;&gt;140417266059408 -->
<g id="edge7" class="edge">
<title>140417266073040&#45;&gt;140417266059408</title>
<path fill="none" stroke="black" d="M324.4,-386C331.89,-386 340.18,-386 348.2,-386"/>
<polygon fill="black" stroke="black" points="348.1,-389.5 358.1,-386 348.1,-382.5 348.1,-389.5"/>
</g>
<!-- 140417809219664 -->
<g id="node34" class="node">
<title>140417809219664</title>
<ellipse fill="white" stroke="black" cx="207" cy="-206" rx="27" ry="27"/>
<text text-anchor="start" x="191.5" y="-197.3" font-family="Times,serif" font-size="34.00">●</text>
</g>
<!-- 140417809219664&#45;&gt;140417171045200 -->
<g id="edge77" class="edge">
<title>140417809219664&#45;&gt;140417171045200</title>
<path fill="none" stroke="black" d="M234.4,-206C241.89,-206 250.18,-206 258.2,-206"/>
<polygon fill="black" stroke="black" points="258.1,-209.5 268.1,-206 258.1,-202.5 258.1,-209.5"/>
</g>
<!-- 140417266057488 -->
<g id="node35" class="node">
<title>140417266057488</title>
<ellipse fill="white" stroke="black" cx="27" cy="-350" rx="27" ry="27"/>
<text text-anchor="start" x="11.5" y="-341.3" font-family="Times,serif" font-size="34.00">●</text>
</g>
<!-- 140417266057488&#45;&gt;140417266067344 -->
<g id="edge78" class="edge">
<title>140417266057488&#45;&gt;140417266067344</title>
<path fill="none" stroke="black" d="M54.4,-350C61.89,-350 70.18,-350 78.2,-350"/>
<polygon fill="black" stroke="black" points="78.1,-353.5 88.1,-350 78.1,-346.5 78.1,-353.5"/>
</g>
<!-- 140417279048528 -->
<g id="node36" class="node">
<title>140417279048528</title>
<ellipse fill="white" stroke="black" cx="927" cy="-192" rx="27" ry="27"/>
<text text-anchor="start" x="911.5" y="-183.3" font-family="Times,serif" font-size="34.00">●</text>
</g>
<!-- 140417279048528&#45;&gt;140417793024528 -->
<g id="edge79" class="edge">
<title>140417279048528&#45;&gt;140417793024528</title>
<path fill="none" stroke="black" d="M950.66,-178.09C959.6,-172.61 970.09,-166.17 980.01,-160.08"/>
<polygon fill="black" stroke="black" points="981.69,-163.16 988.38,-154.95 978.03,-157.2 981.69,-163.16"/>
</g>
<!-- 140417279048528&#45;&gt;140417839808464 -->
<g id="edge80" class="edge">
<title>140417279048528&#45;&gt;140417839808464</title>
<path fill="none" stroke="black" d="M951.58,-203.26C960.09,-207.32 969.91,-212 979.27,-216.47"/>
<polygon fill="black" stroke="black" points="977.66,-219.58 988.19,-220.73 980.67,-213.26 977.66,-219.58"/>
</g>
<!-- 140417839796752&#45;&gt;140417839808464 -->
<g id="edge39" class="edge">
<title>140417839796752&#45;&gt;140417839808464</title>
<path fill="none" stroke="black" d="M952.98,-255.48C961.06,-252.73 970.19,-249.62 978.95,-246.63"/>
<polygon fill="black" stroke="black" points="979.96,-249.98 988.29,-243.44 977.7,-243.36 979.96,-249.98"/>
</g>
<!-- 140417266072144&#45;&gt;140417266058704 -->
<g id="edge40" class="edge">
<title>140417266072144&#45;&gt;140417266058704</title>
<path fill="none" stroke="black" d="M772.51,-323.19C780.76,-326.28 790.14,-329.8 799.12,-333.17"/>
<polygon fill="black" stroke="black" points="797.76,-336.4 808.35,-336.63 800.22,-329.84 797.76,-336.4"/>
</g>
<!-- 140417839798224&#45;&gt;140417793026320 -->
<g id="edge41" class="edge">
<title>140417839798224&#45;&gt;140417793026320</title>
<path fill="none" stroke="black" d="M1134.4,-171C1141.89,-171 1150.18,-171 1158.2,-171"/>
<polygon fill="black" stroke="black" points="1158.1,-174.5 1168.1,-171 1158.1,-167.5 1158.1,-174.5"/>
</g>
<!-- 140417266063440&#45;&gt;140417266065232 -->
<g id="edge42" class="edge">
<title>140417266063440&#45;&gt;140417266065232</title>
<path fill="none" stroke="black" d="M594.4,-386C601.89,-386 610.18,-386 618.2,-386"/>
<polygon fill="black" stroke="black" points="618.1,-389.5 628.1,-386 618.1,-382.5 618.1,-389.5"/>
</g>
<!-- 140417793016848&#45;&gt;140417793022928 -->
<g id="edge43" class="edge">
<title>140417793016848&#45;&gt;140417793022928</title>
<path fill="none" stroke="black" d="M1318.12,-169.86C1326.96,-169.48 1337.01,-169.04 1346.55,-168.63"/>
<polygon fill="black" stroke="black" points="1346.47,-172.14 1356.31,-168.2 1346.16,-165.14 1346.47,-172.14"/>
</g>
<!-- 140417266071184&#45;&gt;140417266058704 -->
<g id="edge44" class="edge">
<title>140417266071184&#45;&gt;140417266058704</title>
<path fill="none" stroke="black" d="M772.05,-375.34C780.39,-371.65 789.94,-367.41 799.07,-363.37"/>
<polygon fill="black" stroke="black" points="800.4,-366.61 808.12,-359.35 797.56,-360.21 800.4,-366.61"/>
</g>
<!-- 140417793023184&#45;&gt;140417793024528 -->
<g id="edge45" class="edge">
<title>140417793023184&#45;&gt;140417793024528</title>
<path fill="none" stroke="black" d="M953.93,-125.3C961.66,-126.89 970.31,-128.65 978.62,-130.35"/>
<polygon fill="black" stroke="black" points="977.67,-133.73 988.17,-132.31 979.07,-126.87 977.67,-133.73"/>
</g>
<!-- 140417266069328&#45;&gt;140417261757456 -->
<g id="edge46" class="edge">
<title>140417266069328&#45;&gt;140417261757456</title>
<path fill="none" stroke="black" d="M952.98,-339.05C961.06,-336.48 970.19,-333.58 978.95,-330.79"/>
<polygon fill="black" stroke="black" points="979.82,-334.19 988.29,-327.82 977.69,-327.52 979.82,-334.19"/>
</g>
<!-- 140417266069328&#45;&gt;140417266065040 -->
<g id="edge47" class="edge">
<title>140417266069328&#45;&gt;140417266065040</title>
<path fill="none" stroke="black" d="M952.98,-354.95C961.06,-357.52 970.19,-360.42 978.95,-363.21"/>
<polygon fill="black" stroke="black" points="977.69,-366.48 988.29,-366.18 979.82,-359.81 977.69,-366.48"/>
</g>
<!-- 140417793024848&#45;&gt;140417267132880 -->
<g id="edge48" class="edge">
<title>140417793024848&#45;&gt;140417267132880</title>
<path fill="none" stroke="black" d="M1134.4,-99C1141.89,-99 1150.18,-99 1158.2,-99"/>
<polygon fill="black" stroke="black" points="1158.1,-102.5 1168.1,-99 1158.1,-95.5 1158.1,-102.5"/>
</g>
<!-- 140417266060816&#45;&gt;140417790347408 -->
<g id="edge49" class="edge">
<title>140417266060816&#45;&gt;140417790347408</title>
<path fill="none" stroke="black" d="M1129.3,-371.51C1138.98,-364.47 1150.68,-355.96 1161.55,-348.05"/>
<polygon fill="black" stroke="black" points="1163.58,-350.91 1169.61,-342.2 1159.46,-345.25 1163.58,-350.91"/>
</g>
<!-- 140417266068496&#45;&gt;140417837356560 -->
<g id="edge50" class="edge">
<title>140417266068496&#45;&gt;140417837356560</title>
<path fill="none" stroke="black" d="M1318.12,-380C1326.96,-380 1337.01,-380 1346.55,-380"/>
<polygon fill="black" stroke="black" points="1346.3,-383.5 1356.3,-380 1346.3,-376.5 1346.3,-383.5"/>
</g>
<!-- 140417267425296&#45;&gt;140417267432016 -->
<g id="edge51" class="edge">
<title>140417267425296&#45;&gt;140417267432016</title>
<path fill="none" stroke="black" d="M1318.12,-99C1326.96,-99 1337.01,-99 1346.55,-99"/>
<polygon fill="black" stroke="black" points="1346.3,-102.5 1356.3,-99 1346.3,-95.5 1346.3,-102.5"/>
</g>
<!-- 140417267425616&#45;&gt;140417267429648 -->
<g id="edge52" class="edge">
<title>140417267425616&#45;&gt;140417267429648</title>
<path fill="none" stroke="black" d="M1502.4,-99C1509.89,-99 1518.18,-99 1526.2,-99"/>
<polygon fill="black" stroke="black" points="1526.1,-102.5 1536.1,-99 1526.1,-95.5 1526.1,-102.5"/>
</g>
<!-- 140417261758736&#45;&gt;140417261758160 -->
<g id="edge53" class="edge">
<title>140417261758736&#45;&gt;140417261758160</title>
<path fill="none" stroke="black" d="M1502.4,-368C1509.89,-368 1518.18,-368 1526.2,-368"/>
<polygon fill="black" stroke="black" points="1526.1,-371.5 1536.1,-368 1526.1,-364.5 1526.1,-371.5"/>
</g>
<!-- 140417267430480&#45;&gt;140417267431376 -->
<g id="edge54" class="edge">
<title>140417267430480&#45;&gt;140417267431376</title>
<path fill="none" stroke="black" d="M1318.12,-27C1326.96,-27 1337.01,-27 1346.55,-27"/>
<polygon fill="black" stroke="black" points="1346.3,-30.5 1356.3,-27 1346.3,-23.5 1346.3,-30.5"/>
</g>
<!-- 140417261749648&#45;&gt;140417261759632 -->
<g id="edge55" class="edge">
<title>140417261749648&#45;&gt;140417261759632</title>
<path fill="none" stroke="black" d="M1686.12,-368C1694.96,-368 1705.01,-368 1714.55,-368"/>
<polygon fill="black" stroke="black" points="1714.3,-371.5 1724.3,-368 1714.3,-364.5 1714.3,-371.5"/>
</g>
<!-- 140417267429456&#45;&gt;140417267429648 -->
<g id="edge56" class="edge">
<title>140417267429456&#45;&gt;140417267429648</title>
<path fill="none" stroke="black" d="M1496.41,-43.7C1507.17,-52.5 1520.61,-63.5 1532.66,-73.36"/>
<polygon fill="black" stroke="black" points="1530.41,-76.04 1540.37,-79.66 1534.84,-70.62 1530.41,-76.04"/>
</g>
<!-- 140417261758032&#45;&gt;140417261749840 -->
<g id="edge57" class="edge">
<title>140417261758032&#45;&gt;140417261749840</title>
<path fill="none" stroke="black" d="M1502.4,-440C1509.89,-440 1518.18,-440 1526.2,-440"/>
<polygon fill="black" stroke="black" points="1526.1,-443.5 1536.1,-440 1526.1,-436.5 1526.1,-443.5"/>
</g>
<!-- 140417261757776&#45;&gt;140417261759632 -->
<g id="edge58" class="edge">
<title>140417261757776&#45;&gt;140417261759632</title>
<path fill="none" stroke="black" d="M1680.88,-423.66C1692.31,-414.71 1706.73,-403.43 1719.59,-393.36"/>
<polygon fill="black" stroke="black" points="1721.71,-396.15 1727.43,-387.23 1717.39,-390.64 1721.71,-396.15"/>
</g>
<!-- 140417266073552&#45;&gt;140417167939024 -->
<g id="edge59" class="edge">
<title>140417266073552&#45;&gt;140417167939024</title>
<path fill="none" stroke="black" d="M1131.12,-302.39C1139.89,-297.61 1150.1,-292.04 1159.79,-286.75"/>
<polygon fill="black" stroke="black" points="1161.18,-289.98 1168.28,-282.12 1157.83,-283.83 1161.18,-289.98"/>
</g>
<!-- 140417261748816&#45;&gt;140417261762320 -->
<g id="edge61" class="edge">
<title>140417261748816&#45;&gt;140417261762320</title>
<path fill="none" stroke="black" d="M1499.58,-256.79C1508.09,-261.05 1517.91,-265.95 1527.27,-270.64"/>
<polygon fill="black" stroke="black" points="1525.69,-273.76 1536.2,-275.1 1528.83,-267.5 1525.69,-273.76"/>
</g>
<!-- 140417261748816&#45;&gt;140417261756176 -->
<g id="edge60" class="edge">
<title>140417261748816&#45;&gt;140417261756176</title>
<path fill="none" stroke="black" d="M1501.93,-239.99C1509.66,-238.5 1518.31,-236.83 1526.62,-235.22"/>
<polygon fill="black" stroke="black" points="1527.01,-238.71 1536.16,-233.38 1525.68,-231.84 1527.01,-238.71"/>
</g>
<!-- 140417261764240&#45;&gt;140417261761424 -->
<g id="edge62" class="edge">
<title>140417261764240&#45;&gt;140417261761424</title>
<path fill="none" stroke="black" d="M1686.12,-296C1694.96,-296 1705.01,-296 1714.55,-296"/>
<polygon fill="black" stroke="black" points="1714.3,-299.5 1724.3,-296 1714.3,-292.5 1714.3,-299.5"/>
</g>
<!-- 140417261757008&#45;&gt;140417261759440 -->
<g id="edge63" class="edge">
<title>140417261757008&#45;&gt;140417261759440</title>
<path fill="none" stroke="black" d="M1686.12,-226.55C1694.96,-227.42 1705.01,-228.4 1714.55,-229.34"/>
<polygon fill="black" stroke="black" points="1714.02,-232.8 1724.31,-230.29 1714.7,-225.83 1714.02,-232.8"/>
</g>
<!-- 140417837556752&#45;&gt;140417790347408 -->
<g id="edge65" class="edge">
<title>140417837556752&#45;&gt;140417790347408</title>
<path fill="none" stroke="black" d="M1127.53,-260.75C1139.33,-271.48 1154.56,-285.33 1167.67,-297.24"/>
<polygon fill="black" stroke="black" points="1165.04,-299.59 1174.79,-303.72 1169.75,-294.41 1165.04,-299.59"/>
</g>
<!-- 140417837556752&#45;&gt;140417167939024 -->
<g id="edge64" class="edge">
<title>140417837556752&#45;&gt;140417167939024</title>
<path fill="none" stroke="black" d="M1133.45,-249.94C1141.36,-252.1 1150.24,-254.52 1158.78,-256.85"/>
<polygon fill="black" stroke="black" points="1157.66,-260.17 1168.23,-259.43 1159.5,-253.42 1157.66,-260.17"/>
</g>
<!-- 140417266058064&#45;&gt;140417266073232 -->
<g id="edge66" class="edge">
<title>140417266058064&#45;&gt;140417266073232</title>
<path fill="none" stroke="black" d="M234.4,-314C241.89,-314 250.18,-314 258.2,-314"/>
<polygon fill="black" stroke="black" points="258.1,-317.5 268.1,-314 258.1,-310.5 258.1,-317.5"/>
</g>
<!-- 140417170192144&#45;&gt;140417170017360 -->
<g id="edge67" class="edge">
<title>140417170192144&#45;&gt;140417170017360</title>
<path fill="none" stroke="black" d="M414.4,-242C421.89,-242 430.18,-242 438.2,-242"/>
<polygon fill="black" stroke="black" points="438.1,-245.5 448.1,-242 438.1,-238.5 438.1,-245.5"/>
</g>
<!-- 140417266072976&#45;&gt;140417266062736 -->
<g id="edge68" class="edge">
<title>140417266072976&#45;&gt;140417266062736</title>
<path fill="none" stroke="black" d="M414.4,-314C421.89,-314 430.18,-314 438.2,-314"/>
<polygon fill="black" stroke="black" points="438.1,-317.5 448.1,-314 438.1,-310.5 438.1,-317.5"/>
</g>
<!-- 140417790360080&#45;&gt;140417839808336 -->
<g id="edge69" class="edge">
<title>140417790360080&#45;&gt;140417839808336</title>
<path fill="none" stroke="black" d="M592.51,-232.81C600.76,-229.72 610.14,-226.2 619.12,-222.83"/>
<polygon fill="black" stroke="black" points="620.22,-226.16 628.35,-219.37 617.76,-219.6 620.22,-226.16"/>
</g>
<!-- 140417266062992&#45;&gt;140417266073040 -->
<g id="edge70" class="edge">
<title>140417266062992&#45;&gt;140417266073040</title>
<path fill="none" stroke="black" d="M234.4,-386C241.89,-386 250.18,-386 258.2,-386"/>
<polygon fill="black" stroke="black" points="258.1,-389.5 268.1,-386 258.1,-382.5 258.1,-389.5"/>
</g>
<!-- 140417170023632&#45;&gt;140417841388176 -->
<g id="edge71" class="edge">
<title>140417170023632&#45;&gt;140417841388176</title>
<path fill="none" stroke="black" d="M414.4,-170C421.89,-170 430.18,-170 438.2,-170"/>
<polygon fill="black" stroke="black" points="438.1,-173.5 448.1,-170 438.1,-166.5 438.1,-173.5"/>
</g>
<!-- 140417266059408&#45;&gt;140417266062736 -->
<g id="edge72" class="edge">
<title>140417266059408&#45;&gt;140417266062736</title>
<path fill="none" stroke="black" d="M408.41,-369.3C419.17,-360.5 432.61,-349.5 444.66,-339.64"/>
<polygon fill="black" stroke="black" points="446.84,-342.38 452.37,-333.34 442.41,-336.96 446.84,-342.38"/>
</g>
<!-- 140417841394512&#45;&gt;140417839808336 -->
<g id="edge73" class="edge">
<title>140417841394512&#45;&gt;140417839808336</title>
<path fill="none" stroke="black" d="M592.05,-180.66C600.39,-184.35 609.94,-188.59 619.07,-192.63"/>
<polygon fill="black" stroke="black" points="617.56,-195.79 628.12,-196.65 620.4,-189.39 617.56,-195.79"/>
</g>
<!-- 140417841389392&#45;&gt;140417793025552 -->
<g id="edge74" class="edge">
<title>140417841389392&#45;&gt;140417793025552</title>
<path fill="none" stroke="black" d="M772.98,-201.34C781.06,-198.86 790.19,-196.06 798.95,-193.37"/>
<polygon fill="black" stroke="black" points="799.75,-196.78 808.28,-190.5 797.69,-190.09 799.75,-196.78"/>
</g>
<!-- 140417841389392&#45;&gt;140417839803600 -->
<g id="edge75" class="edge">
<title>140417841389392&#45;&gt;140417839803600</title>
<path fill="none" stroke="black" d="M772.51,-218.19C780.76,-221.28 790.14,-224.8 799.12,-228.17"/>
<polygon fill="black" stroke="black" points="797.76,-231.4 808.35,-231.63 800.22,-224.84 797.76,-231.4"/>
</g>
<!-- 140417266064976&#45;&gt;140417266061456 -->
<g id="edge76" class="edge">
<title>140417266064976&#45;&gt;140417266061456</title>
<path fill="none" stroke="black" d="M594.4,-314C601.89,-314 610.18,-314 618.2,-314"/>
<polygon fill="black" stroke="black" points="618.1,-317.5 628.1,-314 618.1,-310.5 618.1,-317.5"/>
</g>
</g>
</svg>
